<?xml version="1.0" standalone="no"?>
<!DOCTYPE svg PUBLIC "-//W3C//DTD SVG 20010904//EN"
 "http://www.w3.org/TR/2001/REC-SVG-20010904/DTD/svg10.dtd">
<svg version="1.0" xmlns="http://www.w3.org/2000/svg"
 width="50.000000pt" height="50.000000pt" viewBox="0 0 623.000000 681.000000"
 preserveAspectRatio="xMidYMid meet">

<g transform="translate(0.000000,681.000000) scale(0.100000,-0.100000)"
fill="#000000" stroke="none">
<path d="M3186 6728 c-14 -46 -253 -778 -530 -1628 l-503 -1545 913 -3 c722
-2 914 -5 914 -15 0 -6 -263 -802 -585 -1767 -322 -965 -585 -1758 -585 -1762
0 -5 13 -8 29 -8 l29 0 598 1793 c328 985 599 1798 602 1805 3 9 -183 12 -912
12 -504 0 -916 4 -916 8 0 8 868 2679 985 3030 l53 162 -33 0 c-32 0 -33 -1
-59 -82z"/>
<path d="M2750 6515 c-573 -70 -1120 -298 -1570 -655 -135 -107 -393 -365
-500 -500 -809 -1020 -898 -2430 -225 -3540 281 -464 700 -865 1180 -1127 301
-165 683 -295 1013 -344 86 -13 95 -11 106 27 6 19 0 21 -77 31 -179 24 -452
96 -640 169 -51 20 -168 73 -262 119 -604 297 -1094 788 -1395 1400 -142 288
-233 574 -281 881 -30 198 -37 574 -15 774 43 375 130 667 301 1015 355 723
959 1262 1720 1537 196 71 485 136 684 154 65 6 74 5 68 -8 -19 -51 -1007
-3107 -1007 -3117 0 -8 234 -11 914 -11 l915 0 -105 -312 c-58 -172 -263 -780
-454 -1350 l-349 -1038 32 0 32 0 463 1378 c254 757 462 1380 462 1385 0 4
-412 7 -916 7 -729 0 -915 3 -911 13 2 6 230 710 507 1562 276 853 504 1553
507 1558 6 10 -74 7 -197 -8z"/>
<path d="M3276 6271 c-149 -449 -816 -2489 -816 -2495 0 -3 412 -6 915 -6 503
0 915 -2 915 -3 0 -2 -232 -706 -515 -1563 -283 -857 -518 -1567 -521 -1577
-5 -16 -1 -18 27 -15 l33 3 528 1595 c290 877 527 1601 528 1607 0 10 -193 13
-914 15 l-914 3 319 975 c176 536 369 1127 430 1314 l111 338 56 -7 c572 -67
1089 -279 1552 -635 122 -94 405 -378 500 -500 340 -442 543 -919 627 -1475
28 -187 25 -679 -5 -870 -104 -662 -399 -1245 -867 -1710 -521 -519 -1233
-838 -1963 -881 l-121 -7 -10 -28 -10 -29 63 0 c151 0 438 42 651 96 424 107
858 321 1195 590 119 95 381 359 480 484 622 784 829 1815 559 2777 -148 525
-424 990 -821 1379 -246 241 -489 414 -793 564 -357 176 -677 268 -1092 313
l-42 5 -85 -257z"/>
<path d="M3210 5348 c-155 -469 -319 -967 -365 -1105 l-83 -253 917 -2 917 -3
-486 -1495 -487 -1495 29 -3 c17 -2 31 -2 33 0 1 2 224 685 495 1518 271 833
495 1521 498 1528 3 9 -183 12 -912 12 -504 0 -916 3 -916 7 0 4 47 149 104
323 58 173 211 638 341 1034 l237 718 56 -7 c83 -10 313 -69 427 -109 224 -78
430 -180 625 -311 173 -115 274 -198 420 -345 457 -456 727 -1019 800 -1665
13 -116 13 -444 0 -560 -26 -227 -79 -459 -150 -655 -94 -258 -269 -568 -446
-790 -87 -109 -305 -327 -414 -414 -351 -281 -777 -480 -1210 -566 -58 -12
-108 -24 -111 -28 -4 -4 -10 -17 -14 -29 -8 -29 -4 -29 143 2 681 147 1285
520 1694 1046 467 599 671 1404 547 2161 -186 1141 -1051 2055 -2174 2298 -71
16 -153 31 -182 35 l-52 7 -281 -854z"/>
<path d="M2451 6144 c-792 -201 -1450 -720 -1820 -1435 -415 -802 -422 -1724
-19 -2530 132 -265 296 -495 508 -713 385 -396 853 -666 1375 -794 144 -35
132 -35 143 -3 l11 30 -97 21 c-53 12 -162 44 -242 70 -1034 343 -1791 1260
-1915 2319 -17 145 -20 454 -5 586 61 537 258 1016 592 1438 97 122 301 327
418 421 250 200 554 367 850 468 99 33 240 71 246 65 3 -2 -212 -673 -476
-1491 -264 -818 -480 -1489 -480 -1491 0 -3 412 -5 915 -5 503 0 915 -2 915
-4 0 -3 -153 -468 -339 -1035 -187 -567 -343 -1040 -346 -1052 -6 -18 -3 -20
26 -17 l33 3 353 1070 c194 589 352 1078 353 1088 0 16 -50 17 -910 17 -616 0
-910 3 -910 10 0 6 213 671 474 1478 260 807 477 1477 480 1490 9 29 -8 28
-133 -4z"/>
</g>
</svg>
